<svg width="18" height="17" viewBox="0 0 18 17" fill="none" xmlns="http://www.w3.org/2000/svg">
<path d="M1 1H3.90909L5.85818 10.5643C5.92469 10.8931 6.10684 11.1885 6.37276 11.3988C6.63868 11.609 6.97142 11.7207 7.31273 11.7143H14.3818C14.7231 11.7207 15.0559 11.609 15.3218 11.3988C15.5877 11.1885 15.7699 10.8931 15.8364 10.5643L17 4.57143H4.63636M7.54545 15.2857C7.54545 15.6802 7.21984 16 6.81818 16C6.41652 16 6.09091 15.6802 6.09091 15.2857C6.09091 14.8912 6.41652 14.5714 6.81818 14.5714C7.21984 14.5714 7.54545 14.8912 7.54545 15.2857ZM15.5455 15.2857C15.5455 15.6802 15.2198 16 14.8182 16C14.4165 16 14.0909 15.6802 14.0909 15.2857C14.0909 14.8912 14.4165 14.5714 14.8182 14.5714C15.2198 14.5714 15.5455 14.8912 15.5455 15.2857Z" stroke="white" stroke-width="2" stroke-linecap="round" stroke-linejoin="round"/>
</svg>
